<?xml version="1.0" encoding="utf-8"?>
<!-- Generator: Adobe Illustrator 18.1.0, SVG Export Plug-In . SVG Version: 6.00 Build 0)  -->
<!DOCTYPE svg PUBLIC "-//W3C//DTD SVG 1.1//EN" "http://www.w3.org/Graphics/SVG/1.1/DTD/svg11.dtd">
<svg version="1.1" id="Layer_1" xmlns="http://www.w3.org/2000/svg" xmlns:xlink="http://www.w3.org/1999/xlink" x="0px" y="0px"
	 viewBox="0 0 300 280" enable-background="new 0 0 300 280" xml:space="preserve">
<g>
	<g>
		<path fill="#FF6E09" d="M150,242.7c-8.6,0-17.4-0.7-25.3-1.7C109,256.5,79.8,280,43.8,280c-2.5,0-5-1.3-6-3.8
			c-0.6-2.5-0.3-5.3,1.5-6.9c0.3-0.4,18.3-18.7,22.6-49.9C24.3,197.3,0,161.7,0,121.3C0,54.2,66.9,0,150,0
			c83.1,0,150,54.2,150,121.3C300,188.4,233.1,242.7,150,242.7z"/>
	</g>
	<g>
		<path fill="#F2F2F2" d="M153.5,188.8c-0.7,0.5-1.4,0.9-2.3,0.9c-0.9,0-1.8-0.4-2.3-0.9L97,136.9c-24.8-24.7-26.4-50.3-10.4-66.1
			c15.8-15.7,41.5-15.7,57.3,0c3,3,5.4,6.3,7.3,9.7c1.9-3.4,4.3-6.7,7.3-9.7c15.8-15.9,41.5-15.9,57.4,0
			c15.8,15.8,14.3,41.4-10.6,66.1L153.5,188.8z"/>
	</g>
</g>
</svg>
