<?xml version="1.0" encoding="utf-8"?>
<!-- Generator: Adobe Illustrator 18.1.0, SVG Export Plug-In . SVG Version: 6.00 Build 0)  -->
<!DOCTYPE svg PUBLIC "-//W3C//DTD SVG 1.1//EN" "http://www.w3.org/Graphics/SVG/1.1/DTD/svg11.dtd">
<svg version="1.1" id="Layer_1" xmlns="http://www.w3.org/2000/svg" xmlns:xlink="http://www.w3.org/1999/xlink" x="0px" y="0px"
	 viewBox="0 0 180 140" enable-background="new 0 0 180 140" xml:space="preserve">
<g opacity="0.15">
	<path fill="#FFFFFF" d="M168.3,4.2c2.2,0,3.8,0.6,4.7,1.8c0.9,1.2,0.9,2.8,0,4.9l-22.8,49.9h14.2c7.6,0,11.4,3.8,11.4,11.4v52.4
		c0,7.6-3.8,11.4-11.4,11.4h-51.7c-7.6,0-11.4-3.8-11.4-11.4V68.8c0-5.4,1.3-10.1,3.9-14.1L135.8,8c1.5-2.6,3.8-3.9,6.9-3.9H168.3
		 M71.2,4.2c4.8,0,6.3,2.2,4.4,6.7L53.2,60.7h14.1c7.6,0,11.4,3.8,11.4,11.4v52.4c0,7.6-3.8,11.4-11.4,11.4H15.5
		c-7.6,0-11.4-3.8-11.4-11.4V68.8c0-5,1.4-9.7,4.2-14.1L38.8,8c1.5-2.6,3.8-3.9,6.9-3.9H71.2 M168.3,0h-25.6c-4.6,0-8.3,2-10.5,5.9
		l-30.5,46.5c-3,4.8-4.6,10.3-4.6,16.4v55.7c0,9.9,5.7,15.5,15.6,15.5h51.7c9.9,0,15.6-5.7,15.6-15.5V72.1c0-9.9-5.7-15.5-15.6-15.5
		h-7.7l20.1-44c2-4.4,0.8-7.4-0.5-9.1C175.1,1.9,172.8,0,168.3,0L168.3,0z M71.2,0H45.7c-4.6,0-8.3,2-10.5,5.9L4.8,52.3l0,0l0,0
		C1.6,57.5,0,63,0,68.8v55.7c0,9.9,5.7,15.5,15.5,15.5h51.8c9.9,0,15.6-5.7,15.6-15.5V72.1c0-9.9-5.7-15.5-15.6-15.5h-7.7l19.8-44
		l0-0.1l0-0.1C81,8.8,81,5.8,79.4,3.5C77.8,1.2,75.1,0,71.2,0L71.2,0z"/>
</g>
</svg>
