<?xml version="1.0" encoding="utf-8"?>
<!-- Generator: Adobe Illustrator 18.1.0, SVG Export Plug-In . SVG Version: 6.00 Build 0)  -->
<!DOCTYPE svg PUBLIC "-//W3C//DTD SVG 1.1//EN" "http://www.w3.org/Graphics/SVG/1.1/DTD/svg11.dtd">
<svg version="1.1" id="Layer_1" xmlns="http://www.w3.org/2000/svg" xmlns:xlink="http://www.w3.org/1999/xlink" x="0px" y="0px"
	 viewBox="0 0 272 124" enable-background="new 0 0 272 124" xml:space="preserve">
<g>
	<path fill="#4C4C4C" d="M0,118.3c0-1.8,0.5-3.2,1.4-4.2c0.9-1,2.2-1.5,3.8-1.5c1.6,0,2.8,0.5,3.7,1.5c0.9,1,1.4,2.4,1.4,4.2
		c0,1.8-0.5,3.2-1.4,4.2c-0.9,1-2.1,1.5-3.7,1.5c-1.6,0-2.9-0.5-3.8-1.5C0.5,121.5,0,120.1,0,118.3z M1.5,118.3c0,1.4,0.3,2.5,1,3.2
		c0.6,0.8,1.5,1.2,2.6,1.2c1.1,0,2-0.4,2.6-1.2c0.6-0.8,0.9-1.9,0.9-3.2c0-1.4-0.3-2.5-0.9-3.2c-0.6-0.8-1.5-1.2-2.6-1.2
		c-1.1,0-2,0.4-2.6,1.2C1.8,115.9,1.5,116.9,1.5,118.3z M12.1,123.7v-10.8h7.2v1.4h-5.8v3.2h5v1.3h-5v4.9H12.1z M27.3,123.7v-9.5
		h-3.4v-1.3h8.3v1.3h-3.4v9.5H27.3z M33.5,123.7v-10.8h7.7v1.3h-6.2v3.2h5.8v1.3h-5.8v3.6h6.4v1.3H33.5z M43,123.7v-10.8h7.7v1.3
		h-6.2v3.2h5.8v1.3h-5.8v3.6h6.4v1.3H43z M52.6,123.7v-10.8h1.6l5,7.8c0.1,0.2,0.2,0.3,0.3,0.5c0.1,0.2,0.1,0.3,0.2,0.4v-8.7h1.4
		v10.8h-1.6l-5.1-7.9c-0.1-0.1-0.2-0.2-0.2-0.4c-0.1-0.1-0.1-0.3-0.2-0.4v8.7H52.6z M68.9,114.5v9.2h-1.3v-10.8h2.1l2.7,8.2
		c0.1,0.2,0.1,0.4,0.2,0.5c0,0.1,0.1,0.2,0.1,0.3c0-0.2,0.1-0.3,0.1-0.5c0-0.1,0.1-0.3,0.1-0.4l2.8-8.2h2.1v10.8h-1.4v-9.2
		c0,0.2-0.1,0.3-0.1,0.5c0,0.2-0.1,0.3-0.1,0.5l-2.8,8.2h-1.4l-2.7-8.2c0-0.1-0.1-0.3-0.1-0.4C69,114.9,68.9,114.7,68.9,114.5z
		 M79.5,118.3c0-1.8,0.5-3.2,1.4-4.2c0.9-1,2.2-1.5,3.8-1.5c1.6,0,2.8,0.5,3.7,1.5c0.9,1,1.4,2.4,1.4,4.2c0,1.8-0.5,3.2-1.4,4.2
		c-0.9,1-2.1,1.5-3.7,1.5c-1.6,0-2.9-0.5-3.8-1.5C80,121.5,79.5,120.1,79.5,118.3z M81,118.3c0,1.4,0.3,2.5,1,3.2
		c0.6,0.8,1.5,1.2,2.6,1.2c1.1,0,2-0.4,2.6-1.2c0.6-0.8,0.9-1.9,0.9-3.2c0-1.4-0.3-2.5-0.9-3.2c-0.6-0.8-1.5-1.2-2.6-1.2
		c-1.1,0-2,0.4-2.6,1.2C81.3,115.9,81,116.9,81,118.3z M92.9,114.5v9.2h-1.3v-10.8h2.1l2.7,8.2c0.1,0.2,0.1,0.4,0.2,0.5
		c0,0.1,0.1,0.2,0.1,0.3c0-0.2,0.1-0.3,0.1-0.5c0-0.1,0.1-0.3,0.1-0.4l2.8-8.2h2.1v10.8h-1.4v-9.2c0,0.2-0.1,0.3-0.1,0.5
		c0,0.2-0.1,0.3-0.1,0.5l-2.8,8.2h-1.4l-2.7-8.2c0-0.1-0.1-0.3-0.1-0.4C93,114.9,93,114.7,92.9,114.5z M103.5,120.2h1.4
		c0,0.8,0.3,1.4,0.8,1.9c0.5,0.5,1.2,0.7,2,0.7c0.8,0,1.5-0.2,2-0.5c0.5-0.4,0.7-0.8,0.7-1.4c0-0.8-0.9-1.5-2.7-1.9
		c-0.1,0-0.2,0-0.2-0.1c-1.5-0.3-2.4-0.7-2.9-1.2c-0.5-0.4-0.7-1-0.7-1.8c0-1,0.4-1.7,1.1-2.3c0.7-0.6,1.6-0.9,2.8-0.9
		c1.2,0,2.1,0.3,2.8,0.9c0.7,0.6,1,1.5,1,2.5l-1.4,0c0-0.7-0.3-1.3-0.7-1.7c-0.4-0.4-1-0.6-1.8-0.6c-0.7,0-1.3,0.2-1.7,0.5
		c-0.4,0.3-0.6,0.7-0.6,1.3c0,0.8,0.9,1.5,2.7,1.9c0.3,0.1,0.5,0.1,0.6,0.1l0.2,0c1.2,0.3,1.9,0.6,2.3,0.9c0.3,0.2,0.5,0.5,0.7,0.9
		c0.2,0.3,0.2,0.7,0.2,1.2c0,1-0.4,1.9-1.1,2.5c-0.7,0.6-1.8,0.9-3,0.9c-1.3,0-2.3-0.3-3.1-1C104,122.3,103.6,121.4,103.5,120.2z
		 M117.8,123.7v-10.8h7.2v1.4h-5.8v3.2h5v1.3h-5v4.9H117.8z M126.6,123.7v-10.8h1.5v10.8H126.6z M130.4,123.7v-10.8h1.6l5,7.8
		c0.1,0.2,0.2,0.3,0.3,0.5c0.1,0.2,0.1,0.3,0.2,0.4v-8.7h1.4v10.8h-1.6l-5.1-7.9c-0.1-0.1-0.2-0.2-0.2-0.4c-0.1-0.1-0.1-0.3-0.2-0.4
		v8.7H130.4z M141.2,123.7v-10.8h1.5v10.8H141.2z M144.6,120.2h1.4c0,0.8,0.3,1.4,0.8,1.9c0.5,0.5,1.2,0.7,2,0.7
		c0.8,0,1.5-0.2,2-0.5c0.5-0.4,0.7-0.8,0.7-1.4c0-0.8-0.9-1.5-2.7-1.9c-0.1,0-0.2,0-0.2-0.1c-1.5-0.3-2.4-0.7-2.9-1.2
		c-0.5-0.4-0.7-1-0.7-1.8c0-1,0.4-1.7,1.1-2.3c0.7-0.6,1.6-0.9,2.8-0.9c1.2,0,2.1,0.3,2.8,0.9c0.7,0.6,1,1.5,1,2.5l-1.4,0
		c0-0.7-0.3-1.3-0.7-1.7c-0.4-0.4-1-0.6-1.8-0.6c-0.7,0-1.3,0.2-1.7,0.5c-0.4,0.3-0.6,0.7-0.6,1.3c0,0.8,0.9,1.5,2.7,1.9
		c0.3,0.1,0.5,0.1,0.6,0.1l0.2,0c1.2,0.3,1.9,0.6,2.3,0.9c0.3,0.2,0.5,0.5,0.7,0.9c0.2,0.3,0.2,0.7,0.2,1.2c0,1-0.4,1.9-1.1,2.5
		c-0.7,0.6-1.8,0.9-3,0.9c-1.3,0-2.3-0.3-3.1-1C145,122.3,144.6,121.4,144.6,120.2z M154.7,123.7v-10.8h1.5v4.4h5.6v-4.4h1.5v10.8
		h-1.5v-5h-5.6v5H154.7z M169.7,123.7v-10.8h1.5v4.4h5.6v-4.4h1.5v10.8h-1.5v-5h-5.6v5H169.7z M180.5,123.7v-10.8h1.5v10.8H180.5z
		 M192.4,122.3c-0.4,0.6-1,1-1.6,1.3c-0.6,0.3-1.3,0.4-2.1,0.4c-1.5,0-2.6-0.5-3.5-1.6c-0.9-1-1.4-2.4-1.4-4.1
		c0-1.8,0.5-3.1,1.4-4.2c0.9-1,2.2-1.5,3.8-1.5c1.2,0,2.2,0.3,3,0.9c0.8,0.6,1.2,1.5,1.4,2.6h-1.4c-0.1-0.7-0.5-1.3-1-1.7
		c-0.5-0.4-1.2-0.6-2-0.6c-1.2,0-2.1,0.4-2.7,1.1c-0.6,0.8-1,1.8-1,3.2c0,1.4,0.3,2.4,1,3.2c0.6,0.8,1.5,1.2,2.6,1.2
		c1,0,1.8-0.3,2.4-0.9s0.9-1.5,0.9-2.5v-0.1H189v-1.2h4.7v5.8h-1L192.4,122.3z M195.8,123.7v-10.8h1.5v4.4h5.6v-4.4h1.5v10.8h-1.5
		v-5h-5.6v5H195.8z M210.3,120.2h1.4c0,0.8,0.3,1.4,0.8,1.9c0.5,0.5,1.2,0.7,2,0.7c0.8,0,1.5-0.2,2-0.5c0.5-0.4,0.7-0.8,0.7-1.4
		c0-0.8-0.9-1.5-2.7-1.9c-0.1,0-0.2,0-0.2-0.1c-1.5-0.3-2.4-0.7-2.9-1.2c-0.5-0.4-0.7-1-0.7-1.8c0-1,0.4-1.7,1.1-2.3
		c0.7-0.6,1.6-0.9,2.8-0.9c1.2,0,2.1,0.3,2.8,0.9c0.7,0.6,1,1.5,1,2.5l-1.4,0c0-0.7-0.3-1.3-0.7-1.7c-0.4-0.4-1-0.6-1.8-0.6
		c-0.7,0-1.3,0.2-1.7,0.5c-0.4,0.3-0.6,0.7-0.6,1.3c0,0.8,0.9,1.5,2.7,1.9c0.3,0.1,0.5,0.1,0.6,0.1l0.2,0c1.2,0.3,1.9,0.6,2.3,0.9
		c0.3,0.2,0.5,0.5,0.7,0.9c0.2,0.3,0.2,0.7,0.2,1.2c0,1-0.4,1.9-1.1,2.5c-0.7,0.6-1.8,0.9-3,0.9c-1.3,0-2.3-0.3-3.1-1
		C210.7,122.3,210.3,121.4,210.3,120.2z M228,119.7h1.4c-0.1,1.3-0.5,2.4-1.3,3.1c-0.8,0.8-1.9,1.2-3.2,1.2c-1.5,0-2.7-0.5-3.6-1.6
		c-0.9-1-1.3-2.5-1.3-4.3c0-1.7,0.5-3,1.4-4c0.9-1,2.1-1.5,3.7-1.5c1.2,0,2.2,0.3,3,0.9c0.8,0.6,1.2,1.5,1.4,2.6h-1.4
		c-0.1-0.7-0.5-1.3-1-1.6c-0.5-0.4-1.2-0.6-2-0.6c-1.1,0-1.9,0.4-2.5,1.1c-0.6,0.8-0.9,1.8-0.9,3.2c0,1.3,0.3,2.4,0.9,3.2
		c0.6,0.8,1.5,1.2,2.5,1.2c0.9,0,1.6-0.3,2.2-0.8C227.6,121.3,228,120.6,228,119.7z M231.1,123.7v-10.8h1.5v4.4h5.6v-4.4h1.5v10.8
		h-1.5v-5h-5.6v5H231.1z M241.5,118.3c0-1.8,0.5-3.2,1.4-4.2c0.9-1,2.2-1.5,3.8-1.5c1.6,0,2.8,0.5,3.7,1.5c0.9,1,1.4,2.4,1.4,4.2
		c0,1.8-0.5,3.2-1.4,4.2c-0.9,1-2.1,1.5-3.7,1.5c-1.6,0-2.9-0.5-3.8-1.5C242,121.5,241.5,120.1,241.5,118.3z M243,118.3
		c0,1.4,0.3,2.5,1,3.2c0.6,0.8,1.5,1.2,2.6,1.2c1.1,0,2-0.4,2.6-1.2c0.6-0.8,0.9-1.9,0.9-3.2c0-1.4-0.3-2.5-0.9-3.2
		c-0.6-0.8-1.5-1.2-2.6-1.2c-1.1,0-2,0.4-2.6,1.2C243.3,115.9,243,116.9,243,118.3z M253.1,118.3c0-1.8,0.5-3.2,1.4-4.2
		c0.9-1,2.2-1.5,3.8-1.5c1.6,0,2.8,0.5,3.7,1.5c0.9,1,1.4,2.4,1.4,4.2c0,1.8-0.5,3.2-1.4,4.2c-0.9,1-2.1,1.5-3.7,1.5
		c-1.6,0-2.9-0.5-3.8-1.5C253.5,121.5,253.1,120.1,253.1,118.3z M254.6,118.3c0,1.4,0.3,2.5,1,3.2c0.6,0.8,1.5,1.2,2.6,1.2
		c1.1,0,2-0.4,2.6-1.2c0.6-0.8,0.9-1.9,0.9-3.2c0-1.4-0.3-2.5-0.9-3.2c-0.6-0.8-1.5-1.2-2.6-1.2c-1.1,0-2,0.4-2.6,1.2
		C254.9,115.9,254.6,116.9,254.6,118.3z M265.1,123.7v-10.8h1.5v9.4h5.4v1.4H265.1z"/>
	<path fill="#4C4C4C" d="M1.9,25.9C1.7,25.9,1.5,26,1.4,26c-0.2,0-0.3,0-0.4-0.1c-0.2-0.2-0.3-0.4-0.3-0.8v-5.1c0-0.6,0.3-1,0.8-1.2
		L16.3,13L1.5,7.2C1,7.1,0.7,6.7,0.7,6V0.9c0-0.4,0.1-0.7,0.3-0.8C1.1,0,1.3,0,1.4,0c0.1,0,0.3,0,0.5,0.1l22.9,9.4h16
		c0.7,0,1,0.3,1,1v4.9c0,0.7-0.3,1-1,1h-16L1.9,25.9z M41,44.6c0.6,0,0.8-0.3,0.8-0.8V25.4c0-0.6-0.3-0.8-0.8-0.8h-5.1
		c-0.5,0-0.8,0.3-0.8,0.8v12.2H1.5c-0.5,0-0.8,0.3-0.8,0.8v5.3c0,0.6,0.3,0.8,0.8,0.8H41z M41,71.1H1.5c-0.5,0-0.8-0.3-0.8-0.8v-5.1
		c0-0.5,0.2-0.8,0.7-0.9l21.9-7.8v-0.3H1.5c-0.5,0-0.8-0.3-0.8-0.8v-5.3c0-0.6,0.3-0.8,0.8-0.8H41c0.3,0,0.5,0.1,0.6,0.2
		c0.2,0.2,0.2,0.4,0.2,0.6V55c0,0.5-0.2,0.8-0.7,0.9l-21.9,7.9v0.3H41c0.6,0,0.8,0.3,0.8,0.8v5.3c0,0.3-0.1,0.5-0.2,0.6
		C41.5,71,41.3,71.1,41,71.1z M34.4,96.1H8.1c-2.4,0-4.3-0.6-5.5-1.9c-1.3-1.3-1.9-3.1-1.9-5.5v-5.8c0-2.4,0.6-4.3,1.9-5.5
		c1.3-1.3,3.1-1.9,5.5-1.9h26.3c2.4,0,4.3,0.6,5.5,1.9c1.3,1.3,1.9,3.1,1.9,5.5v5.8c0,2.4-0.6,4.3-1.9,5.5
		C38.7,95.5,36.9,96.1,34.4,96.1z M33.1,89.3c1.4,0,2.1-0.7,2.1-2.1v-3c0-1.4-0.7-2.1-2.1-2.1H9.4c-1.4,0-2.1,0.7-2.1,2.1v3
		c0,1.4,0.7,2.1,2.1,2.1H33.1z"/>
	<path fill="#FF6B00" d="M60.6,67c-1.6,0-2.4-0.8-2.4-2.4V54.1c0-1,0.3-1.9,0.9-2.8L89.3,2.4c0.5-1,1.5-1.5,2.8-1.5h12.4
		c1,0,1.6,0.3,1.9,0.8c0.3,0.5,0.2,1.2-0.3,2L76.6,52.5h17.9v-14c0-1.6,0.8-2.3,2.3-2.3H107c1.6,0,2.3,0.8,2.3,2.3v13.8h4.9
		c1.6,0,2.4,0.8,2.4,2.4v10.2c0,1.6-0.8,2.4-2.4,2.4h-4.9v25.4c0,1.6-0.8,2.4-2.3,2.4H96.8c-1.6,0-2.3-0.8-2.3-2.4V67H60.6L60.6,67z
		 M126.7,78V17.8c0-5.6,1.4-9.8,4.3-12.6c2.9-2.9,7.1-4.3,12.7-4.3H157c5.6,0,9.8,1.4,12.7,4.3c2.9,2.9,4.3,7.1,4.3,12.6V78
		c0,5.6-1.4,9.8-4.3,12.6c-2.9,2.9-7.1,4.3-12.7,4.3h-13.2c-5.6,0-9.8-1.4-12.7-4.3C128.2,87.8,126.7,83.6,126.7,78z M142.3,75.1
		c0,3.1,1.6,4.7,4.7,4.7h6.8c3.2,0,4.7-1.6,4.7-4.7V20.8c0-3.1-1.6-4.7-4.7-4.7H147c-3.2,0-4.7,1.6-4.7,4.7V75.1z M185.7,27
		c0-5.2,1.8-9.6,5.5-13.3c3.6-3.7,8.1-5.5,13.3-5.5c5.1,0,9.5,1.8,13.1,5.5c3.6,3.7,5.5,8.1,5.5,13.3c0,5.1-1.8,9.4-5.5,13
		c-3.6,3.6-8,5.4-13.1,5.4c-5.2,0-9.7-1.8-13.3-5.4C187.5,36.4,185.7,32.1,185.7,27z M195.2,95c-1,0-1.6-0.2-2-0.7
		c-0.4-0.5-0.3-1.1,0.1-2l54.3-81.7c0.5-0.7,0.9-1.2,1.2-1.5c0.3-0.3,0.8-0.4,1.5-0.4h11c0.9,0,1.6,0.2,2,0.7c0.4,0.5,0.3,1.1-0.1,2
		L209,93.1c-0.5,0.7-0.9,1.2-1.2,1.5c-0.3,0.3-0.8,0.4-1.5,0.4H195.2L195.2,95z M197.9,27c0,1.7,0.6,3.2,1.9,4.5
		c1.3,1.3,2.8,1.9,4.6,1.9c1.6,0,3.1-0.6,4.4-1.9c1.3-1.3,1.9-2.8,1.9-4.5c0-1.8-0.6-3.3-1.9-4.6c-1.3-1.3-2.8-2-4.4-2
		c-1.8,0-3.3,0.6-4.6,1.9C198.6,23.6,197.9,25.2,197.9,27z M232.3,78.4c0-5.2,1.8-9.6,5.5-13.3c3.6-3.7,8.1-5.5,13.3-5.5
		c5.1,0,9.5,1.8,13.1,5.5c3.6,3.7,5.5,8.1,5.5,13.3c0,5.1-1.8,9.4-5.5,13c-3.6,3.6-8,5.4-13.1,5.4c-5.2,0-9.7-1.8-13.3-5.4
		C234.1,87.8,232.3,83.5,232.3,78.4z M244.6,78.4c0,1.7,0.6,3.2,1.9,4.5c1.3,1.3,2.8,1.9,4.6,1.9c1.6,0,3.1-0.6,4.4-1.9
		c1.3-1.3,1.9-2.8,1.9-4.5c0-1.8-0.6-3.3-1.9-4.6c-1.3-1.3-2.8-1.9-4.4-1.9c-1.8,0-3.3,0.6-4.6,1.9
		C245.2,75.1,244.6,76.6,244.6,78.4z"/>
</g>
</svg>
