<?xml version="1.0" encoding="utf-8"?>
<!-- Generator: Adobe Illustrator 18.1.0, SVG Export Plug-In . SVG Version: 6.00 Build 0)  -->
<!DOCTYPE svg PUBLIC "-//W3C//DTD SVG 1.1//EN" "http://www.w3.org/Graphics/SVG/1.1/DTD/svg11.dtd">
<svg version="1.1" id="Layer_1" xmlns="http://www.w3.org/2000/svg" xmlns:xlink="http://www.w3.org/1999/xlink" x="0px" y="0px"
	 viewBox="0 0 470 124" enable-background="new 0 0 470 124" xml:space="preserve">
<g>
	<path fill="#8F8F8F" d="M3.7,13.8c1.3,1.4,3,2.1,5.3,2.1c2.2,0,4-0.7,5.2-2.1c1.3-1.4,1.9-3.3,1.9-5.8c0-2.5-0.6-4.4-1.9-5.8
		C12.9,0.7,11.2,0,9,0C6.7,0,5,0.7,3.7,2.1C2.4,3.5,1.8,5.5,1.8,7.9C1.8,10.4,2.4,12.4,3.7,13.8z M5.3,122.2
		c1.1,1.2,2.5,1.8,4.4,1.8c1.9,0,3.3-0.6,4.4-1.8c1-1.2,1.6-2.8,1.6-4.9c0-2.1-0.5-3.7-1.6-4.9c-1-1.2-2.5-1.7-4.4-1.7
		c-1.9,0-3.3,0.6-4.4,1.8c-1.1,1.2-1.6,2.8-1.6,4.9C3.7,119.5,4.2,121.1,5.3,122.2z M5.3,3.4C6.1,2.3,7.4,1.8,9,1.8
		c1.6,0,2.8,0.5,3.7,1.6C13.5,4.5,14,6,14,7.9c0,1.9-0.4,3.4-1.3,4.5c-0.9,1.1-2.1,1.6-3.7,1.6c-1.6,0-2.8-0.5-3.7-1.6
		c-0.9-1.1-1.3-2.6-1.3-4.5C3.9,6,4.4,4.5,5.3,3.4z M6.6,113.6c0.7-0.9,1.8-1.4,3.1-1.4c1.3,0,2.3,0.5,3.1,1.4
		c0.7,0.9,1.1,2.2,1.1,3.8c0,1.6-0.4,2.9-1.1,3.8c-0.7,0.9-1.8,1.4-3.1,1.4c-1.3,0-2.3-0.5-3.1-1.4c-0.7-0.9-1.1-2.2-1.1-3.8
		C5.5,115.8,5.8,114.5,6.6,113.6z M19.4,123.7V118h5.9v-1.5h-5.9v-3.8h6.7v-1.6h-8.4v12.6H19.4z M20.7,15.5V8.7h7.1V6.8h-7.1V2.3
		h8.1V0.4H18.7v15.1H20.7z M37.2,123.7v-11h4v-1.5h-9.7v1.5h4v11H37.2z M42,15.5V2.2h4.8V0.4H35.2v1.8H40v13.2H42z M51.8,123.7v-1.6
		h-7.4v-4.2h6.7v-1.5h-6.7v-3.8h7.3v-1.6h-9v12.6H51.8z M50.6,15.5V8.4h7.8v7.1h2.1V0.4h-2.1v6.2h-7.8V0.4h-2v15.1H50.6z M63,123.7
		v-1.6h-7.4v-4.2h6.7v-1.5h-6.7v-3.8h7.3v-1.6h-9v12.6H63z M65,13.8c1.3,1.4,3,2.1,5.3,2.1c2.2,0,4-0.7,5.2-2.1
		c1.3-1.4,1.9-3.3,1.9-5.8c0-2.5-0.6-4.4-1.9-5.8c-1.3-1.4-3-2.1-5.2-2.1c-2.2,0-4,0.7-5.3,2.1c-1.3,1.4-1.9,3.3-1.9,5.8
		C63.1,10.4,63.8,12.4,65,13.8z M66.6,123.7v-10.2c0.1,0.2,0.1,0.3,0.2,0.5c0.1,0.2,0.2,0.3,0.3,0.4l6,9.3H75v-12.6h-1.6v10.2
		c-0.1-0.2-0.1-0.3-0.2-0.5c-0.1-0.2-0.2-0.4-0.3-0.6l-5.9-9.1H65v12.6H66.6z M66.6,3.4c0.9-1.1,2.1-1.6,3.7-1.6
		c1.6,0,2.8,0.5,3.7,1.6c0.9,1.1,1.3,2.6,1.3,4.5c0,1.9-0.4,3.4-1.3,4.5c-0.9,1.1-2.1,1.6-3.7,1.6c-1.6,0-2.8-0.5-3.7-1.6
		c-0.9-1.1-1.3-2.6-1.3-4.5C65.2,6,65.7,4.5,66.6,3.4z M80.9,14.5c1,0.9,2.4,1.4,4.3,1.4c1.8,0,3.2-0.4,4.2-1.3c1-0.9,1.6-2,1.6-3.5
		c0-0.6-0.1-1.1-0.3-1.6c-0.2-0.5-0.5-0.9-0.9-1.2c-0.5-0.5-1.6-0.9-3.2-1.3l-0.2-0.1c-0.2,0-0.5-0.1-0.9-0.2
		c-2.5-0.6-3.7-1.4-3.7-2.6c0-0.7,0.3-1.3,0.9-1.8C83.2,1.9,84,1.7,85,1.7c1.1,0,1.9,0.3,2.5,0.8c0.6,0.5,1,1.3,1,2.3l2,0
		c0-1.5-0.5-2.7-1.5-3.5c-1-0.9-2.3-1.3-3.9-1.3c-1.6,0-2.9,0.4-3.9,1.2c-1,0.8-1.5,1.9-1.5,3.2c0,1.1,0.3,1.9,1,2.5
		c0.7,0.6,2,1.1,4.1,1.6c0.1,0,0.2,0,0.3,0.1c2.5,0.6,3.8,1.5,3.8,2.6c0,0.8-0.3,1.5-1,2c-0.7,0.5-1.6,0.7-2.8,0.7
		c-1.2,0-2.1-0.3-2.8-1c-0.7-0.6-1.1-1.5-1.1-2.6h-2C79.4,12.2,79.9,13.6,80.9,14.5z M84.1,113.5c0,0.2,0.1,0.4,0.2,0.5l3.2,9.6H89
		l3.2-9.6c0.1-0.2,0.1-0.4,0.2-0.6c0.1-0.2,0.1-0.4,0.1-0.5v10.7h1.7v-12.6h-2.4l-3.2,9.6c-0.1,0.1-0.1,0.3-0.1,0.5
		c0,0.2-0.1,0.4-0.1,0.6c0-0.1-0.1-0.2-0.1-0.4c0-0.2-0.1-0.4-0.2-0.6l-3.1-9.6h-2.4v12.6H84v-10.7C84,113.2,84.1,113.4,84.1,113.5z
		 M104.5,15.5v-1.9h-8.9V8.5h8.1V6.8h-8.1V2.3h8.7V0.4H93.5v15.1H104.5z M98,122.2c1.1,1.2,2.5,1.8,4.4,1.8c1.9,0,3.3-0.6,4.4-1.8
		c1-1.2,1.6-2.8,1.6-4.9c0-2.1-0.5-3.7-1.6-4.9c-1-1.2-2.5-1.7-4.4-1.7c-1.9,0-3.3,0.6-4.4,1.8c-1.1,1.2-1.6,2.8-1.6,4.9
		C96.4,119.5,96.9,121.1,98,122.2z M99.3,113.6c0.7-0.9,1.8-1.4,3.1-1.4c1.3,0,2.3,0.5,3.1,1.4c0.7,0.9,1.1,2.2,1.1,3.8
		c0,1.6-0.4,2.9-1.1,3.8c-0.7,0.9-1.8,1.4-3.1,1.4c-1.3,0-2.3-0.5-3.1-1.4c-0.7-0.9-1.1-2.2-1.1-3.8
		C98.2,115.8,98.5,114.5,99.3,113.6z M114.9,123.7v-11h4v-1.5h-9.7v1.5h4v11H114.9z M117.2,15.5L120.5,3l3.4,12.4h2l4-15.1H128
		l-3.1,12l-3.3-12h-2.1l-3.2,12.1l-3.1-12.1h-2l3.9,15.1H117.2z M122.1,123.7v-5.9h6.5v5.9h1.7v-12.6h-1.7v5.2h-6.5v-5.2h-1.7v12.6
		H122.1z M133.7,15.5V8.4h7.8v7.1h2.1V0.4h-2.1v6.2h-7.8V0.4h-2v15.1H133.7z M142.2,123.7v-1.6h-7.4v-4.2h6.7v-1.5h-6.7v-3.8h7.3
		v-1.6h-9v12.6H142.2z M144.2,123.7h1.7v-5.4h2.8c1.2,0,2,0.1,2.3,0.4c0.3,0.3,0.5,0.8,0.5,1.6l0.1,1.6v0.1c0.1,0.9,0.2,1.4,0.3,1.7
		h2v-0.3c-0.2-0.1-0.3-0.2-0.4-0.5c-0.1-0.2-0.1-0.5-0.2-1l-0.1-2.1c-0.1-0.8-0.2-1.3-0.4-1.6c-0.2-0.3-0.6-0.6-1-0.7
		c0.6-0.3,1-0.6,1.3-1.1c0.3-0.5,0.4-1.1,0.4-1.7c0-0.7-0.1-1.3-0.4-1.8c-0.3-0.5-0.7-0.9-1.2-1.2c-0.3-0.2-0.6-0.3-1-0.3
		c-0.4-0.1-1-0.1-1.7-0.1h-4.9V123.7z M148.8,112.6c1.1,0,1.9,0.2,2.3,0.5c0.4,0.3,0.6,0.8,0.6,1.6c0,0.8-0.2,1.4-0.7,1.7
		c-0.4,0.3-1.2,0.5-2.2,0.5h-2.9v-4.3H148.8z M148,13.8c1.3,1.4,3,2.1,5.3,2.1c2.2,0,4-0.7,5.2-2.1c1.3-1.4,1.9-3.3,1.9-5.8
		c0-2.5-0.6-4.4-1.9-5.8c-1.3-1.4-3-2.1-5.2-2.1c-2.2,0-4,0.7-5.3,2.1c-1.3,1.4-1.9,3.3-1.9,5.8C146.1,10.4,146.8,12.4,148,13.8z
		 M149.6,3.4c0.9-1.1,2.1-1.6,3.7-1.6c1.6,0,2.8,0.5,3.7,1.6c0.9,1.1,1.3,2.6,1.3,4.5c0,1.9-0.4,3.4-1.3,4.5
		c-0.9,1.1-2.1,1.6-3.7,1.6c-1.6,0-2.8-0.5-3.7-1.6c-0.9-1.1-1.3-2.6-1.3-4.5C148.3,6,148.7,4.5,149.6,3.4z M156.6,122.8
		c0.9,0.8,2,1.2,3.6,1.2c1.5,0,2.7-0.4,3.5-1.1c0.9-0.7,1.3-1.7,1.3-2.9c0-0.5-0.1-1-0.3-1.4c-0.2-0.4-0.4-0.8-0.8-1
		c-0.4-0.4-1.3-0.7-2.7-1l-0.2,0c-0.2,0-0.4-0.1-0.7-0.2c-2.1-0.5-3.1-1.2-3.1-2.2c0-0.6,0.3-1.1,0.8-1.5c0.5-0.4,1.2-0.6,2-0.6
		c0.9,0,1.6,0.2,2.1,0.7c0.5,0.4,0.8,1.1,0.9,1.9l1.6,0c0-1.2-0.4-2.2-1.2-2.9c-0.8-0.7-1.9-1.1-3.3-1.1c-1.4,0-2.4,0.3-3.3,1
		c-0.8,0.7-1.2,1.6-1.2,2.7c0,0.9,0.3,1.6,0.8,2.1c0.5,0.5,1.7,0.9,3.4,1.4c0.1,0,0.2,0,0.3,0.1c2.1,0.5,3.2,1.2,3.2,2.2
		c0,0.7-0.3,1.3-0.8,1.7c-0.6,0.4-1.3,0.6-2.3,0.6c-1,0-1.8-0.3-2.4-0.8c-0.6-0.5-0.9-1.3-0.9-2.2h-1.6
		C155.3,121,155.8,122.1,156.6,122.8z M170.8,15.5V8.4h7.8v7.1h2.1V0.4h-2.1v6.2h-7.8V0.4h-2v15.1H170.8z M173.6,123.7V118h5.9v-1.5
		h-5.9v-3.8h6.7v-1.6h-8.4v12.6H173.6z M183.9,123.7v-12.6h-1.7v12.6H183.9z M184.4,15.5L186,11h5.9l1.6,4.5h2.2l-5.6-15.1h-2.3
		l-5.6,15.1H184.4z M188.2,123.7v-10.2c0.1,0.2,0.1,0.3,0.2,0.5c0.1,0.2,0.2,0.3,0.3,0.4l6,9.3h1.9v-12.6h-1.6v10.2
		c-0.1-0.2-0.1-0.3-0.2-0.5c-0.1-0.2-0.2-0.4-0.3-0.6l-5.9-9.1h-1.9v12.6H188.2z M189,2.5l2.3,6.7h-4.7L189,2.5z M202.8,15.5
		l5.3-15.1H206L201.8,13l-4.3-12.6h-2.1l5.4,15.1H202.8z M200.9,123.7v-12.6h-1.7v12.6H200.9z M204.5,122.8c0.9,0.8,2,1.2,3.6,1.2
		c1.5,0,2.7-0.4,3.5-1.1c0.9-0.7,1.3-1.7,1.3-2.9c0-0.5-0.1-1-0.3-1.4c-0.2-0.4-0.4-0.8-0.8-1c-0.4-0.4-1.3-0.7-2.7-1l-0.2,0
		c-0.2,0-0.4-0.1-0.7-0.2c-2.1-0.5-3.1-1.2-3.1-2.2c0-0.6,0.3-1.1,0.8-1.5c0.5-0.4,1.2-0.6,2-0.6c0.9,0,1.6,0.2,2.1,0.7
		c0.5,0.4,0.8,1.1,0.9,1.9l1.6,0c0-1.2-0.4-2.2-1.2-2.9c-0.8-0.7-1.9-1.1-3.3-1.1c-1.4,0-2.4,0.3-3.3,1c-0.8,0.7-1.2,1.6-1.2,2.7
		c0,0.9,0.3,1.6,0.8,2.1c0.5,0.5,1.7,0.9,3.4,1.4c0.1,0,0.2,0,0.3,0.1c2.1,0.5,3.2,1.2,3.2,2.2c0,0.7-0.3,1.3-0.8,1.7
		c-0.6,0.4-1.3,0.6-2.3,0.6c-1,0-1.8-0.3-2.4-0.8c-0.6-0.5-0.9-1.3-0.9-2.2h-1.6C203.2,121,203.6,122.1,204.5,122.8z M220.6,15.5
		v-1.9h-8.9V8.5h8.1V6.8h-8.1V2.3h8.7V0.4h-10.8v15.1H220.6z M216.7,123.7v-5.9h6.5v5.9h1.7v-12.6h-1.7v5.2h-6.5v-5.2H215v12.6
		H216.7z M229.3,15.5l1.6-4.5h5.9l1.6,4.5h2.2l-5.6-15.1h-2.3l-5.6,15.1H229.3z M233.9,2.5l2.3,6.7h-4.7L233.9,2.5z M240.1,121.5
		c-0.7,0.6-1.5,1-2.5,1c-1.2,0-2.2-0.5-2.9-1.4c-0.7-0.9-1.1-2.2-1.1-3.7c0-1.6,0.4-2.9,1.1-3.8c0.7-0.9,1.7-1.3,3-1.3
		c1,0,1.7,0.2,2.3,0.7c0.6,0.4,1,1.1,1.1,1.9h1.7c-0.1-1.3-0.7-2.3-1.6-3c-0.9-0.7-2.1-1.1-3.5-1.1c-1.8,0-3.2,0.6-4.3,1.7
		c-1.1,1.2-1.6,2.7-1.6,4.7c0,2.1,0.5,3.8,1.5,5c1,1.2,2.4,1.8,4.2,1.8c1.5,0,2.8-0.5,3.8-1.4c1-0.9,1.5-2.1,1.6-3.7h-1.7
		C241.2,120,240.8,120.9,240.1,121.5z M245.9,122.2c1.1,1.2,2.5,1.8,4.4,1.8c1.9,0,3.3-0.6,4.4-1.8c1-1.2,1.6-2.8,1.6-4.9
		c0-2.1-0.5-3.7-1.6-4.9c-1-1.2-2.5-1.7-4.4-1.7c-1.9,0-3.3,0.6-4.4,1.8c-1.1,1.2-1.6,2.8-1.6,4.9
		C244.3,119.5,244.8,121.1,245.9,122.2z M247.2,113.6c0.7-0.9,1.8-1.4,3.1-1.4c1.3,0,2.3,0.5,3.1,1.4c0.7,0.9,1.1,2.2,1.1,3.8
		c0,1.6-0.4,2.9-1.1,3.8c-0.7,0.9-1.8,1.4-3.1,1.4c-1.3,0-2.3-0.5-3.1-1.4c-0.7-0.9-1.1-2.2-1.1-3.8
		C246.1,115.8,246.5,114.5,247.2,113.6z M254.4,15.5c1.6,0,2.8-0.4,3.7-1.2c0.9-0.8,1.4-1.9,1.4-3.3c0-1-0.3-1.8-0.8-2.4
		c-0.5-0.6-1.2-1-2.1-1.2c0.7-0.3,1.3-0.7,1.6-1.3c0.4-0.5,0.5-1.2,0.5-2c0-1.2-0.4-2.1-1.2-2.8c-0.8-0.6-2-0.9-3.5-0.9H248v15.1
		H254.4z M250,2.1h3.8c1,0,1.7,0.2,2.2,0.6c0.5,0.4,0.7,0.9,0.7,1.7c0,0.8-0.2,1.4-0.7,1.8c-0.5,0.4-1.3,0.6-2.3,0.6H250V2.1z
		 M250,8.4h3.9c1.2,0,2,0.2,2.6,0.6c0.5,0.4,0.8,1.1,0.8,1.9c0,0.9-0.3,1.6-0.8,2c-0.5,0.5-1.3,0.7-2.4,0.7H250V8.4z M266.4,123.7
		v-1.6h-6.3v-11h-1.7v12.6H266.4z M262.3,15.5l1.6-4.5h5.9l1.6,4.5h2.2l-5.6-15.1h-2.3l-5.6,15.1H262.3z M266.9,2.5l2.3,6.7h-4.7
		L266.9,2.5z M275.7,123.7v-1.6h-6.3v-11h-1.7v12.6H275.7z M281.6,15.5c1.6,0,2.8-0.4,3.7-1.2c0.9-0.8,1.4-1.9,1.4-3.3
		c0-1-0.3-1.8-0.8-2.4c-0.5-0.6-1.2-1-2.1-1.2c0.7-0.3,1.3-0.7,1.6-1.3c0.4-0.5,0.5-1.2,0.5-2c0-1.2-0.4-2.1-1.2-2.8
		c-0.8-0.6-2-0.9-3.5-0.9h-6.1v15.1H281.6z M286.2,123.7v-1.6h-7.4v-4.2h6.7v-1.5h-6.7v-3.8h7.3v-1.6h-9v12.6H286.2z M277.3,2.1h3.8
		c1,0,1.7,0.2,2.2,0.6c0.5,0.4,0.7,0.9,0.7,1.7c0,0.8-0.2,1.4-0.7,1.8c-0.5,0.4-1.3,0.6-2.3,0.6h-3.6V2.1z M277.3,8.4h3.9
		c1.2,0,2,0.2,2.6,0.6c0.5,0.4,0.8,1.1,0.8,1.9c0,0.9-0.3,1.6-0.8,2c-0.5,0.5-1.3,0.7-2.4,0.7h-4.2V8.4z M294.2,9.3l5.4-8.9h-2.4
		l-4,7.1l-4-7.1h-2.6l5.6,9v6h2.1V9.3z M298,123.7h1.1v-6.8h-5.5v1.4h3.9v0.2c0,1.2-0.4,2.2-1.1,2.9c-0.7,0.7-1.6,1.1-2.8,1.1
		c-1.3,0-2.3-0.5-3.1-1.4c-0.7-0.9-1.1-2.2-1.1-3.8c0-1.6,0.4-2.9,1.1-3.8c0.8-0.9,1.8-1.3,3.2-1.3c0.9,0,1.7,0.2,2.3,0.7
		c0.6,0.5,1,1.1,1.1,2h1.7c-0.2-1.3-0.7-2.3-1.6-3c-0.9-0.7-2.1-1.1-3.5-1.1c-1.9,0-3.4,0.6-4.4,1.8c-1.1,1.2-1.6,2.8-1.6,4.9
		c0,2,0.5,3.6,1.6,4.8c1.1,1.2,2.4,1.8,4.1,1.8c0.9,0,1.7-0.2,2.4-0.5c0.7-0.3,1.3-0.8,1.8-1.5L298,123.7z M310.7,123.7v-1.6h-7.4
		v-4.2h6.7v-1.5h-6.7v-3.8h7.3v-1.6h-9v12.6H310.7z M313.1,15.5c1.6,0,2.8-0.4,3.7-1.2c0.9-0.8,1.4-1.9,1.4-3.3c0-1-0.3-1.8-0.8-2.4
		c-0.5-0.6-1.2-1-2.1-1.2c0.7-0.3,1.3-0.7,1.6-1.3c0.4-0.5,0.5-1.2,0.5-2c0-1.2-0.4-2.1-1.2-2.8c-0.8-0.6-2-0.9-3.5-0.9h-6.1v15.1
		H313.1z M308.8,2.1h3.8c1,0,1.7,0.2,2.2,0.6c0.5,0.4,0.7,0.9,0.7,1.7c0,0.8-0.2,1.4-0.7,1.8c-0.5,0.4-1.3,0.6-2.3,0.6h-3.6V2.1z
		 M308.8,8.4h3.9c1.2,0,2,0.2,2.6,0.6c0.5,0.4,0.8,1.1,0.8,1.9c0,0.9-0.3,1.6-0.8,2c-0.5,0.5-1.3,0.7-2.4,0.7h-4.2V8.4z
		 M322.9,123.7c1.3,0,2.3-0.3,3.1-1c0.8-0.7,1.1-1.6,1.1-2.7c0-0.8-0.2-1.5-0.6-2c-0.4-0.5-1-0.9-1.8-1c0.6-0.2,1-0.6,1.3-1.1
		c0.3-0.5,0.5-1,0.5-1.7c0-1-0.3-1.8-1-2.3c-0.7-0.5-1.6-0.8-2.9-0.8h-5.1v12.6H322.9z M319.3,112.5h3.1c0.8,0,1.4,0.2,1.8,0.5
		c0.4,0.3,0.6,0.8,0.6,1.4c0,0.7-0.2,1.2-0.6,1.5c-0.4,0.3-1.1,0.5-1.9,0.5h-3V112.5z M319.3,117.8h3.3c1,0,1.7,0.2,2.2,0.5
		c0.5,0.3,0.7,0.9,0.7,1.6c0,0.7-0.2,1.3-0.7,1.7c-0.4,0.4-1.1,0.6-2,0.6h-3.5V117.8z M331.6,15.5v-1.9h-8.9V8.5h8.1V6.8h-8.1V2.3
		h8.7V0.4h-10.8v15.1H331.6z M333.4,118.5l4.5-7.4h-2l-3.3,5.9l-3.4-5.9H327l4.7,7.5v5h1.7V118.5z M336.1,15.5V8.7h7.1V6.8h-7.1V2.3
		h8.1V0.4h-10.1v15.1H336.1z M348.3,123.7v-11h4v-1.5h-9.7v1.5h4v11H348.3z M347.5,13.8c1.3,1.4,3,2.1,5.3,2.1c2.2,0,4-0.7,5.2-2.1
		c1.3-1.4,1.9-3.3,1.9-5.8c0-2.5-0.6-4.4-1.9-5.8c-1.3-1.4-3-2.1-5.2-2.1c-2.2,0-4,0.7-5.3,2.1c-1.3,1.4-1.9,3.3-1.9,5.8
		C345.6,10.4,346.3,12.4,347.5,13.8z M349.1,3.4c0.9-1.1,2.1-1.6,3.7-1.6c1.6,0,2.8,0.5,3.7,1.6c0.9,1.1,1.3,2.6,1.3,4.5
		c0,1.9-0.4,3.4-1.3,4.5c-0.9,1.1-2.1,1.6-3.7,1.6c-1.6,0-2.8-0.5-3.7-1.6c-0.9-1.1-1.3-2.6-1.3-4.5C347.7,6,348.2,4.5,349.1,3.4z
		 M355.5,123.7v-5.9h6.5v5.9h1.7v-12.6h-1.7v5.2h-6.5v-5.2h-1.7v12.6H355.5z M362.5,15.5h2V9h3.3c1.4,0,2.4,0.2,2.7,0.5
		c0.4,0.3,0.6,1,0.6,2l0.1,2v0.1c0.1,1,0.2,1.7,0.4,2h2.4V15c-0.2-0.1-0.4-0.3-0.5-0.6c-0.1-0.3-0.2-0.7-0.2-1.2l-0.2-2.5
		c-0.1-0.9-0.2-1.6-0.5-2c-0.2-0.4-0.7-0.7-1.3-0.8c0.7-0.3,1.2-0.8,1.6-1.4c0.3-0.6,0.5-1.3,0.5-2.1c0-0.8-0.2-1.6-0.5-2.2
		c-0.3-0.6-0.8-1.1-1.4-1.5c-0.4-0.2-0.8-0.3-1.2-0.4c-0.4-0.1-1.1-0.1-2.1-0.1h-5.8V15.5z M368,2.2c1.3,0,2.2,0.2,2.7,0.6
		c0.5,0.4,0.7,1,0.7,1.9c0,1-0.3,1.6-0.8,2c-0.5,0.4-1.4,0.6-2.7,0.6h-3.5V2.2H368z M375.6,123.7v-1.6h-7.4v-4.2h6.7v-1.5h-6.7v-3.8
		h7.3v-1.6h-9v12.6H375.6z M387.3,15.5v-1.9h-8.9V8.5h8.1V6.8h-8.1V2.3h8.7V0.4h-10.8v15.1H387.3z M382.8,123.7l1.3-3.8h5l1.3,3.8
		h1.9l-4.7-12.6h-1.9l-4.7,12.6H382.8z M386.6,112.9l1.9,5.5h-3.9L386.6,112.9z M403.3,123.7h1.1v-6.8h-5.5v1.4h3.9v0.2
		c0,1.2-0.4,2.2-1.1,2.9c-0.7,0.7-1.6,1.1-2.8,1.1c-1.3,0-2.3-0.5-3.1-1.4c-0.7-0.9-1.1-2.2-1.1-3.8c0-1.6,0.4-2.9,1.1-3.8
		c0.8-0.9,1.8-1.3,3.2-1.3c0.9,0,1.7,0.2,2.3,0.7c0.6,0.5,1,1.1,1.1,2h1.7c-0.2-1.3-0.7-2.3-1.6-3c-0.9-0.7-2.1-1.1-3.5-1.1
		c-1.9,0-3.4,0.6-4.4,1.8c-1.1,1.2-1.6,2.8-1.6,4.9c0,2,0.5,3.6,1.6,4.8c1.1,1.2,2.4,1.8,4.1,1.8c0.9,0,1.7-0.2,2.4-0.5
		c0.7-0.3,1.3-0.8,1.8-1.5L403.3,123.7z M396,15.5l1.6-4.5h5.9l1.6,4.5h2.2l-5.6-15.1h-2.3l-5.6,15.1H396z M400.6,2.5l2.3,6.7h-4.7
		L400.6,2.5z M416,123.7v-1.6h-7.4v-4.2h6.7v-1.5h-6.7v-3.8h7.3v-1.6h-9v12.6H416z M420.7,15.5h1.3V7.3h-6.6V9h4.7v0.2
		c0,1.5-0.4,2.6-1.3,3.5c-0.8,0.9-2,1.3-3.4,1.3c-1.6,0-2.8-0.5-3.7-1.6c-0.9-1.1-1.3-2.6-1.3-4.5c0-1.9,0.5-3.5,1.4-4.5
		c0.9-1.1,2.2-1.6,3.8-1.6c1.1,0,2.1,0.3,2.8,0.8c0.7,0.6,1.2,1.3,1.4,2.4h2c-0.2-1.6-0.9-2.8-2-3.6c-1.1-0.9-2.5-1.3-4.2-1.3
		c-2.2,0-4,0.7-5.3,2.1c-1.3,1.4-2,3.4-2,5.8c0,2.4,0.6,4.3,1.9,5.7c1.3,1.5,2.9,2.2,5,2.2c1.1,0,2-0.2,2.9-0.6
		c0.8-0.4,1.6-1,2.2-1.8L420.7,15.5z M423.9,122.2c1.1,1.2,2.5,1.8,4.4,1.8c1.9,0,3.3-0.6,4.4-1.8c1-1.2,1.6-2.8,1.6-4.9
		c0-2.1-0.5-3.7-1.6-4.9c-1-1.2-2.5-1.7-4.4-1.7c-1.9,0-3.3,0.6-4.4,1.8c-1.1,1.2-1.6,2.8-1.6,4.9
		C422.3,119.5,422.9,121.1,423.9,122.2z M425.2,113.6c0.7-0.9,1.8-1.4,3.1-1.4c1.3,0,2.3,0.5,3.1,1.4c0.7,0.9,1.1,2.2,1.1,3.8
		c0,1.6-0.4,2.9-1.1,3.8c-0.7,0.9-1.8,1.4-3.1,1.4c-1.3,0-2.3-0.5-3.1-1.4c-0.7-0.9-1.1-2.2-1.1-3.8
		C424.1,115.8,424.5,114.5,425.2,113.6z M435.9,15.5v-1.9H427V8.5h8.1V6.8H427V2.3h8.7V0.4H425v15.1H435.9z M438.1,123.7V118h5.9
		v-1.5h-5.9v-3.8h6.7v-1.6h-8.4v12.6H438.1z M449.8,15.5V0.8h-1.4c-0.1,1-0.5,1.7-1.1,2.1c-0.6,0.5-1.5,0.7-2.8,0.7v1.5h3.4v10.4
		H449.8z M450.4,119.9c0,1.2,0.4,2.2,1.1,3c0.7,0.7,1.7,1.1,3,1.1c1.3,0,2.4-0.4,3.2-1.1c0.8-0.7,1.2-1.6,1.2-2.8
		c0-0.7-0.2-1.4-0.5-1.9c-0.3-0.5-0.8-0.9-1.5-1.1c0.5-0.2,0.9-0.5,1.1-0.9c0.3-0.4,0.4-0.9,0.4-1.5c0-1-0.3-1.8-1-2.4
		c-0.7-0.6-1.6-0.9-2.9-0.9c-1.2,0-2.1,0.4-2.8,1.1c-0.7,0.7-1,1.7-1,2.9v0.1h1.6c0-0.9,0.2-1.5,0.6-1.9c0.4-0.4,1-0.7,1.8-0.7
		c0.7,0,1.2,0.2,1.6,0.5c0.4,0.3,0.6,0.8,0.6,1.4c0,0.7-0.2,1.1-0.6,1.4c-0.4,0.3-1,0.4-1.9,0.4c-0.1,0-0.2,0-0.3,0
		c-0.1,0-0.2,0-0.2,0l0,1.4l0.1,0c0.4,0,0.7,0,0.8,0c0.8,0,1.4,0.2,1.9,0.6c0.4,0.4,0.7,0.9,0.7,1.6c0,0.7-0.2,1.3-0.7,1.8
		c-0.5,0.4-1.1,0.6-1.9,0.6c-0.8,0-1.5-0.2-1.9-0.7c-0.4-0.5-0.7-1.1-0.7-2L450.4,119.9L450.4,119.9z M455.3,9
		c-0.4,0.6-0.6,1.4-0.6,2.3c0,1.4,0.5,2.5,1.4,3.3c0.9,0.8,2.1,1.2,3.7,1.2c1.5,0,2.8-0.4,3.7-1.2c0.9-0.8,1.4-1.9,1.4-3.3
		c0-0.9-0.2-1.6-0.6-2.3c-0.4-0.6-1-1.1-1.8-1.4c0.6-0.3,1.1-0.7,1.5-1.2c0.3-0.5,0.5-1.1,0.5-1.9c0-1.1-0.4-2-1.2-2.7
		c-0.8-0.7-1.9-1-3.3-1c-1.4,0-2.4,0.3-3.3,1c-0.8,0.7-1.2,1.6-1.2,2.7c0,0.7,0.2,1.4,0.5,1.9c0.3,0.5,0.8,0.9,1.4,1.2
		C456.4,7.9,455.8,8.4,455.3,9z M457.6,9.3c0.5-0.5,1.3-0.7,2.2-0.7s1.7,0.2,2.2,0.7c0.5,0.5,0.8,1.1,0.8,2c0,0.9-0.3,1.6-0.8,2.1
		c-0.5,0.5-1.3,0.8-2.2,0.8c-0.9,0-1.6-0.3-2.2-0.8c-0.5-0.5-0.8-1.2-0.8-2.1C456.8,10.4,457,9.8,457.6,9.3z M457.9,3.1
		c0.5-0.4,1.1-0.6,1.9-0.6c0.8,0,1.4,0.2,1.9,0.6c0.4,0.4,0.7,0.9,0.7,1.6c0,0.7-0.2,1.3-0.7,1.7c-0.5,0.4-1.1,0.6-1.8,0.6
		s-1.4-0.2-1.8-0.6c-0.5-0.4-0.7-1-0.7-1.7C457.2,4,457.4,3.5,457.9,3.1z M461.3,122.4c0.7,1.1,1.8,1.6,3.1,1.6
		c1.4,0,2.4-0.5,3.1-1.6c0.7-1.1,1.1-2.6,1.1-4.7c0-2.1-0.4-3.6-1.1-4.7c-0.7-1.1-1.8-1.6-3.1-1.6c-1.4,0-2.4,0.5-3.1,1.6
		c-0.7,1.1-1.1,2.6-1.1,4.7C460.2,119.8,460.6,121.3,461.3,122.4z M462.5,114c0.4-0.8,1-1.2,1.9-1.2c0.9,0,1.5,0.4,1.9,1.2
		c0.4,0.8,0.6,2,0.6,3.7c0,1.7-0.2,2.9-0.6,3.7c-0.4,0.8-1,1.1-1.9,1.1c-0.9,0-1.5-0.4-1.9-1.2c-0.4-0.8-0.6-2-0.6-3.7
		C461.9,116,462.1,114.8,462.5,114z M468.4,15.5v0.3c0,0.5-0.1,0.9-0.3,1.2c-0.2,0.3-0.4,0.5-0.8,0.6v1c0.7-0.2,1.2-0.5,1.6-1
		c0.4-0.5,0.5-1.1,0.5-1.9v-2.4h-2.1v2.3H468.4z"/>
	<path fill="#4C4C4C" d="M0,28.9c0-0.9,0.4-1.3,1.3-1.3h8.6c0.9,0,1.3,0.4,1.3,1.3v53.6h19.6c0.9,0,1.3,0.4,1.3,1.3v8.2
		c0,0.9-0.4,1.3-1.3,1.3H1.3C0.4,93.4,0,93,0,92.1V28.9z"/>
	<path fill="#4C4C4C" d="M39.5,93c0.2,0.2,0.5,0.4,0.9,0.4h30.3c0.9,0,1.3-0.4,1.3-1.3v-8.2c0-0.5-0.1-0.8-0.3-1
		c-0.2-0.2-0.5-0.3-1-0.3H50V65.9h15.8c0.9,0,1.3-0.5,1.3-1.4v-8.1c0-0.9-0.4-1.4-1.3-1.4H50V38.6h20.6c0.9,0,1.3-0.5,1.3-1.4v-8.2
		c0-0.9-0.4-1.3-1.3-1.3H40.4c-0.4,0-0.7,0.1-0.9,0.3c-0.2,0.2-0.3,0.5-0.3,0.9v63.1C39.1,92.5,39.3,92.8,39.5,93z"/>
	<path fill="#4C4C4C" d="M82.1,90.4c2,2,5,3,8.8,3h9.2c3.9,0,6.8-1,8.8-3c2-2,3-4.9,3-8.8v-19c0-1.4-0.7-2.5-2.2-3.1l-19.6-6.4V41.8
		c0-1,0.3-1.9,0.9-2.4c0.6-0.6,1.4-0.9,2.4-0.9h3.9c2.2,0,3.3,1.1,3.3,3.3v6.4c0,0.9,0.4,1.3,1.3,1.3h8.6c0.9,0,1.3-0.4,1.3-1.3
		v-8.7c0-3.9-1-6.8-3-8.8c-2-2-5-3-8.8-3h-9.2c-3.8,0-6.8,1-8.8,3c-2,2-3.1,5-3.1,8.8v19.4c0,1.6,0.7,2.6,2.2,3.1l19.5,6.4v11
		c0,2.2-1.1,3.3-3.3,3.3h-3.9c-2.2,0-3.3-1.1-3.3-3.3v-6.3c0-0.9-0.4-1.3-1.3-1.3h-8.6c-0.9,0-1.3,0.4-1.3,1.3v8.6
		C79.1,85.4,80.1,88.3,82.1,90.4z"/>
	<path fill="#4C4C4C" d="M122.1,90.4c2,2,5,3,8.8,3h9.2c3.9,0,6.8-1,8.8-3c2-2,3-4.9,3-8.8v-19c0-1.4-0.7-2.5-2.2-3.1l-19.6-6.4
		V41.8c0-1,0.3-1.9,0.9-2.4c0.6-0.6,1.4-0.9,2.4-0.9h3.9c2.2,0,3.3,1.1,3.3,3.3v6.4c0,0.9,0.4,1.3,1.3,1.3h8.6
		c0.9,0,1.3-0.4,1.3-1.3v-8.7c0-3.9-1-6.8-3-8.8c-2-2-5-3-8.8-3h-9.2c-3.8,0-6.8,1-8.8,3c-2,2-3.1,5-3.1,8.8v19.4
		c0,1.6,0.7,2.6,2.2,3.1l19.5,6.4v11c0,2.2-1.1,3.3-3.3,3.3h-3.9c-2.2,0-3.3-1.1-3.3-3.3v-6.3c0-0.9-0.4-1.3-1.3-1.3h-8.6
		c-0.9,0-1.3,0.4-1.3,1.3v8.6C119.1,85.4,120.1,88.3,122.1,90.4z"/>
	<path fill="#4C4C4C" d="M179.5,38.1c0.2,0.2,0.6,0.4,1,0.4h9.5v53.6c0,0.9,0.4,1.3,1.3,1.3h8.6c0.9,0,1.3-0.4,1.3-1.3V38.5h9.5
		c0.9,0,1.3-0.4,1.3-1.3v-8.2c0-0.9-0.4-1.3-1.3-1.3h-30.2c-0.9,0-1.3,0.4-1.3,1.3v8.2C179.2,37.6,179.3,37.9,179.5,38.1z"/>
	<path fill="#4C4C4C" d="M219.8,93.4h8.5c0.4,0,0.7-0.1,1-0.4c0.2-0.2,0.4-0.6,0.4-1V65.9h10.5v26.1c0,0.4,0.1,0.7,0.4,1
		c0.2,0.2,0.6,0.4,1,0.4h8.5c0.9,0,1.4-0.4,1.4-1.3V28.9c0-0.9-0.5-1.3-1.4-1.3h-8.5c-0.9,0-1.3,0.4-1.3,1.3v26.2h-10.5V28.9
		c0-0.9-0.4-1.3-1.3-1.3h-8.5c-0.9,0-1.4,0.4-1.4,1.3v63.1C218.4,93,218.8,93.4,219.8,93.4L219.8,93.4z"/>
	<g>
		<path fill="#4C4C4C" d="M299.6,92l-13.7-63.2c-0.2-0.7-0.6-1.1-1.4-1.1h-11.4c-0.8,0-1.2,0.4-1.4,1.1L258.1,92
			c-0.1,0.2-0.1,0.4-0.1,0.5c0,0.6,0.4,0.9,1.2,0.9h8.8c0.7,0,1.1-0.4,1.3-1.2l2.2-12h14.6l2.3,12c0.2,0.8,0.6,1.2,1.3,1.2h8.8
			c0.8,0,1.2-0.3,1.2-1C299.6,92.3,299.6,92.1,299.6,92z M273.5,70.7l5.3-28.7l5.3,28.7H273.5z"/>
	</g>
	<path fill="#4C4C4C" d="M306.7,93c0.2,0.2,0.6,0.4,1,0.4h8.6c0.9,0,1.3-0.4,1.3-1.3V57.2h0.4l12.6,35.1c0.2,0.7,0.7,1.1,1.4,1.1
		h8.2c0.4,0,0.7-0.1,1-0.4c0.2-0.2,0.4-0.6,0.4-1V28.9c0-0.9-0.4-1.3-1.3-1.3h-8.6c-0.9,0-1.3,0.4-1.3,1.3v34.7h-0.5l-12.5-35
		c-0.2-0.7-0.7-1-1.5-1h-8.2c-0.9,0-1.3,0.4-1.3,1.3v63.1C306.3,92.5,306.4,92.8,306.7,93z"/>
	<path fill="#F66918" d="M371.8,93.4h29.6c1.1,0,1.6-0.5,1.6-1.6V79.2c0-1.1-0.5-1.6-1.6-1.6h-7.9c-1.1,0-1.6,0.5-1.6,1.6v3.4H383
		c-1.1,0-1.6-0.5-1.6-1.6v-7.1c0-0.9,0.4-1.6,1.2-2l18.3-9.8c0.8-0.4,1.4-0.9,1.7-1.3c0.3-0.4,0.5-1,0.5-1.8V39.5
		c0-3.9-1-6.8-3.1-8.8c-2-2-5-3-8.8-3H382c-3.9,0-6.8,1-8.8,3c-2,2-3,5-3,8.8v8.7c0,0.9,0.4,1.3,1.3,1.3h8.6c0.9,0,1.3-0.4,1.3-1.3
		v-6.4c0-2.2,1.1-3.3,3.3-3.3h3.9c1,0,1.9,0.3,2.4,0.9c0.6,0.6,0.9,1.4,0.9,2.4v12.2l-19.6,10.5c-0.8,0.4-1.4,0.8-1.7,1.3
		c-0.3,0.4-0.5,1-0.5,1.8v24.2C370.2,92.9,370.7,93.4,371.8,93.4L371.8,93.4z"/>
	<path fill="#F66918" d="M418,93.4h7.7c0.5,0,0.8-0.1,1.1-0.3c0.2-0.2,0.5-0.5,0.8-1L465.4,35c0.3-0.6,0.3-1.1,0.1-1.4
		c-0.3-0.3-0.7-0.5-1.4-0.5h-7.7c-0.5,0-0.8,0.1-1.1,0.3c-0.2,0.2-0.5,0.5-0.8,1l-37.9,57.1c-0.3,0.6-0.3,1.1-0.1,1.4
		C416.9,93.2,417.3,93.4,418,93.4L418,93.4z"/>
	<g>
		<path fill="#F66918" d="M424.4,32.8c-3.7,0-6.8,1.3-9.3,3.8c-2.5,2.6-3.8,5.7-3.8,9.3c0,3.6,1.3,6.6,3.8,9.1
			c2.5,2.5,5.6,3.8,9.3,3.8c3.6,0,6.6-1.3,9.2-3.8c2.5-2.5,3.8-5.5,3.8-9.1c0-3.6-1.3-6.7-3.8-9.3C431.1,34,428,32.8,424.4,32.8z
			 M427.5,49c-0.9,0.9-1.9,1.3-3.1,1.3c-1.3,0-2.3-0.4-3.2-1.3c-0.9-0.9-1.3-1.9-1.3-3.1c0-1.3,0.4-2.3,1.3-3.2
			c0.9-0.9,2-1.3,3.2-1.3c1.1,0,2.2,0.5,3.1,1.4c0.9,0.9,1.4,2,1.4,3.2C428.9,47.1,428.4,48.1,427.5,49z"/>
		<path fill="#F66918" d="M466.2,72.5c-2.5-2.6-5.6-3.9-9.2-3.9c-3.7,0-6.8,1.3-9.3,3.8c-2.5,2.6-3.8,5.7-3.8,9.3
			c0,3.6,1.3,6.6,3.8,9.1c2.5,2.5,5.6,3.8,9.3,3.8c3.6,0,6.6-1.3,9.2-3.8c2.5-2.5,3.8-5.5,3.8-9.1C470,78.2,468.7,75.1,466.2,72.5z
			 M460.1,84.9c-0.9,0.9-1.9,1.3-3.1,1.3c-1.3,0-2.3-0.4-3.2-1.3c-0.9-0.9-1.3-1.9-1.3-3.1c0-1.3,0.4-2.3,1.3-3.2
			c0.9-0.9,2-1.3,3.2-1.3c1.2,0,2.2,0.4,3.1,1.3c0.9,0.9,1.3,2,1.3,3.2C461.4,83,461,84,460.1,84.9z"/>
	</g>
</g>
</svg>
