<?xml version="1.0" encoding="utf-8"?>
<!-- Generator: Adobe Illustrator 18.1.0, SVG Export Plug-In . SVG Version: 6.00 Build 0)  -->
<!DOCTYPE svg PUBLIC "-//W3C//DTD SVG 1.1//EN" "http://www.w3.org/Graphics/SVG/1.1/DTD/svg11.dtd">
<svg version="1.1" id="Layer_1" xmlns="http://www.w3.org/2000/svg" xmlns:xlink="http://www.w3.org/1999/xlink" x="0px" y="0px"
	 viewBox="0 0 215 27" enable-background="new 0 0 215 27" xml:space="preserve">
<g>
	<g>
		<g>
			<path fill="#FFFFFF" d="M50.7,15.5c0,1.4-0.1,2.5-1,3.6c-0.9,1.1-2.3,1.7-3.7,1.7c-2.8,0-5.1-2.4-5.1-5.2c0-2.9,2.3-5.3,5.2-5.3
				c1.7,0,3.1,0.8,4.2,2.2l-0.8,0.8c-0.8-1.2-1.9-1.9-3.4-1.9c-2.3,0-4,1.9-4,4.2c0,1.1,0.4,2.1,1.2,2.9c0.7,0.7,1.8,1.3,2.8,1.3
				c1.7,0,3.5-1.3,3.5-3.2h-2.9v-1H50.7z"/>
		</g>
		<g>
			<path fill="#FFFFFF" d="M53.7,20.6h-1.1V9.5h1.1V20.6z"/>
		</g>
		<g>
			<path fill="#FFFFFF" d="M61.6,20.6h-1.1v-0.9h0c-0.5,0.7-1.3,1-2.1,1c-1.8,0-3-1.6-3-3.3c0-1.8,1.1-3.3,3-3.3
				c0.8,0,1.6,0.4,2.1,1.1h0v-0.9h1.1V20.6z M56.5,17.4c0,1.2,0.7,2.4,2,2.4c1.4,0,2.1-1.1,2.1-2.4c0-1.3-0.8-2.3-2.1-2.3
				C57.3,15.1,56.5,16.2,56.5,17.4z"/>
		</g>
		<g>
			<path fill="#FFFFFF" d="M68.4,19.7L68.4,19.7c-0.5,0.7-1.3,1-2.2,1c-1.8,0-3-1.6-3-3.3c0-1.8,1.1-3.3,3-3.3
				c0.8,0,1.6,0.4,2.1,1.1h0V9.5h1.1v11.1h-1.1V19.7z M64.4,17.4c0,1.2,0.7,2.4,2,2.4c1.4,0,2.1-1.1,2.1-2.4c0-1.3-0.8-2.3-2.1-2.3
				C65.2,15.1,64.4,16.2,64.4,17.4z"/>
		</g>
		<g>
			<path fill="#FFFFFF" d="M72.8,15.1L72.8,15.1c0.5-0.6,1-0.9,1.8-0.9c1.7,0,2.1,1.3,2.1,2.7v3.8h-1.1v-3.6c0-1-0.1-1.9-1.3-1.9
				c-1.4,0-1.5,1.4-1.5,2.5v3h-1.1v-6.3h1.1V15.1z"/>
		</g>
		<g>
			<path fill="#FFFFFF" d="M79.6,17.7c0,1.2,0.8,2.1,2,2.1c0.9,0,1.5-0.6,1.9-1.3l0.9,0.5c-0.6,1.1-1.6,1.8-2.9,1.8
				c-1.8,0-3-1.4-3-3.3c0-1.9,1.1-3.4,3-3.4c2,0,3,1.7,2.9,3.6H79.6z M83.3,16.8c-0.1-0.9-0.9-1.7-1.8-1.7c-0.9,0-1.7,0.7-1.9,1.7
				H83.3z"/>
		</g>
		<g>
			<path fill="#FFFFFF" d="M85.2,14.3h1.2l2.2,4.5l2-4.5h1.2l-4.6,9.9H86l2-4.1L85.2,14.3z"/>
		</g>
		<g>
			<path fill="#FFFFFF" d="M105,12.7c-0.8-0.8-1.9-1.3-3-1.3c-2.2,0-4,2-4,4.2c0,2.2,1.8,4.2,4,4.2c1.1,0,2.2-0.5,3-1.3v1.4
				c-0.9,0.6-1.9,1-3,1c-2.8,0-5.2-2.3-5.2-5.2c0-2.9,2.3-5.3,5.2-5.3c1.1,0,2.1,0.3,3,1V12.7z"/>
		</g>
		<g>
			<path fill="#FFFFFF" d="M107.7,17.7c0,1.2,0.8,2.1,2,2.1c0.9,0,1.5-0.6,1.9-1.3l0.9,0.5c-0.6,1.1-1.6,1.8-2.9,1.8
				c-1.8,0-3-1.4-3-3.3c0-1.9,1.1-3.4,3-3.4c2,0,3,1.7,2.9,3.6H107.7z M111.4,16.8c-0.1-0.9-0.9-1.7-1.8-1.7c-0.9,0-1.7,0.7-1.9,1.7
				H111.4z"/>
		</g>
		<g>
			<path fill="#FFFFFF" d="M115.4,15.1L115.4,15.1c0.5-0.6,1-0.9,1.8-0.9c1.7,0,2.1,1.3,2.1,2.7v3.8h-1.1v-3.6c0-1-0.1-1.9-1.3-1.9
				c-1.4,0-1.5,1.4-1.5,2.5v3h-1.1v-6.3h1.1V15.1z"/>
		</g>
		<g>
			<path fill="#FFFFFF" d="M122.7,20.6h-1.1v-5.3H121v-1h0.6V12h1.1v2.3h1.1v1h-1.1V20.6z"/>
		</g>
		<g>
			<path fill="#FFFFFF" d="M125.6,17.7c0,1.2,0.8,2.1,2,2.1c0.9,0,1.5-0.6,1.9-1.3l0.9,0.5c-0.6,1.1-1.6,1.8-2.9,1.8
				c-1.8,0-3-1.4-3-3.3c0-1.9,1.1-3.4,3-3.4c2,0,3,1.7,2.9,3.6H125.6z M129.3,16.8c-0.1-0.9-0.9-1.7-1.8-1.7c-0.9,0-1.7,0.7-1.9,1.7
				H129.3z"/>
		</g>
		<g>
			<path fill="#FFFFFF" d="M133.2,15L133.2,15c0.4-0.5,0.7-0.9,1.4-0.9c0.4,0,0.6,0.1,0.9,0.3l-0.5,1c-0.2-0.1-0.4-0.3-0.6-0.3
				c-1.2,0-1.2,1.5-1.2,2.3v3.2h-1.1v-6.3h1.1V15z"/>
		</g>
		<g>
			<path fill="#FFFFFF" d="M142.5,20.6h-1.1l0.8-5.3h-0.6l0.2-1h0.6l0.4-2.5c0.1-0.5,0.2-1.2,0.5-1.6c0.4-0.6,1.1-0.8,1.7-0.8
				c0.2,0,0.5,0.1,0.7,0.1l-0.2,1.1c-0.2-0.1-0.4-0.1-0.7-0.1c-0.9,0-0.9,0.6-1.1,1.7l-0.3,2.1h1.6l-0.2,1h-1.6L142.5,20.6z"/>
		</g>
		<g>
			<path fill="#FFFFFF" d="M145.2,17.5c0.3-1.9,2-3.3,3.8-3.3c1.8,0,3,1.5,2.7,3.3c-0.3,1.9-2,3.3-3.8,3.3S144.9,19.3,145.2,17.5z
				 M146.2,17.5c-0.2,1.3,0.5,2.3,1.8,2.3c1.3,0,2.4-1,2.6-2.3c0.2-1.3-0.5-2.3-1.8-2.3C147.5,15.1,146.4,16.2,146.2,17.5z"/>
		</g>
		<g>
			<path fill="#FFFFFF" d="M154.8,15L154.8,15c0.5-0.5,0.8-0.9,1.5-0.9c0.4,0,0.6,0.1,0.9,0.3l-0.7,1c-0.2-0.1-0.3-0.3-0.6-0.3
				c-1.2,0-1.4,1.5-1.6,2.3l-0.5,3.2h-1.1l1-6.3h1.1L154.8,15z"/>
		</g>
		<g>
			<path fill="#FFFFFF" d="M163.5,17.7l-1.2,2.9h-1.2l4.6-10.6l4.5,10.6h-1.2l-1.2-2.9H163.5z M165.7,12.6l-1.7,4.1h3.4L165.7,12.6z
				"/>
		</g>
		<g>
			<path fill="#FFFFFF" d="M176.2,19.7L176.2,19.7c-0.5,0.7-1.3,1-2.2,1c-1.8,0-3-1.6-3-3.3c0-1.8,1.1-3.3,3-3.3
				c0.8,0,1.6,0.4,2.1,1.1h0V9.5h1.1v11.1h-1.1V19.7z M172.1,17.4c0,1.2,0.7,2.4,2,2.4c1.4,0,2.1-1.1,2.1-2.4c0-1.3-0.8-2.3-2.1-2.3
				C172.9,15.1,172.1,16.2,172.1,17.4z"/>
		</g>
		<g>
			<path fill="#FFFFFF" d="M178.9,17.5c0-1.9,1.4-3.3,3.2-3.3c1.8,0,3.2,1.5,3.2,3.3c0,1.9-1.4,3.3-3.2,3.3
				C180.4,20.8,178.9,19.3,178.9,17.5z M180,17.5c0,1.3,0.9,2.3,2.2,2.3c1.3,0,2.2-1,2.2-2.3c0-1.3-0.9-2.3-2.2-2.3
				C180.9,15.1,180,16.2,180,17.5z"/>
		</g>
		<g>
			<path fill="#FFFFFF" d="M188.2,15.2L188.2,15.2c0.5-0.7,1.3-1.1,2.2-1.1c1.8,0,3,1.6,3,3.3c0,1.8-1.1,3.3-3,3.3
				c-0.8,0-1.6-0.4-2.1-1.1h0v4.4h-1.1v-9.9h1.1V15.2z M188.1,17.4c0,1.2,0.7,2.4,2,2.4c1.4,0,2.1-1.1,2.1-2.4
				c0-1.3-0.8-2.3-2.1-2.3C188.9,15.1,188.1,16.2,188.1,17.4z"/>
		</g>
		<g>
			<path fill="#FFFFFF" d="M196.2,20.6h-1.1v-5.3h-0.6v-1h0.6V12h1.1v2.3h1.1v1h-1.1V20.6z"/>
		</g>
		<g>
			<path fill="#FFFFFF" d="M200.1,11.9c0,0.4-0.3,0.8-0.7,0.8s-0.7-0.3-0.7-0.8c0-0.4,0.3-0.8,0.7-0.8S200.1,11.5,200.1,11.9z
				 M199.8,20.6h-1.1v-6.3h1.1V20.6z"/>
		</g>
		<g>
			<path fill="#FFFFFF" d="M201.8,17.5c0-1.9,1.4-3.3,3.2-3.3c1.8,0,3.2,1.5,3.2,3.3c0,1.9-1.4,3.3-3.2,3.3
				C203.2,20.8,201.8,19.3,201.8,17.5z M202.8,17.5c0,1.3,0.9,2.3,2.2,2.3c1.3,0,2.2-1,2.2-2.3c0-1.3-0.9-2.3-2.2-2.3
				C203.7,15.1,202.8,16.2,202.8,17.5z"/>
		</g>
		<g>
			<path fill="#FFFFFF" d="M211.1,15.1L211.1,15.1c0.5-0.6,1-0.9,1.8-0.9c1.7,0,2.1,1.3,2.1,2.7v3.8h-1.1v-3.6c0-1-0.1-1.9-1.3-1.9
				c-1.4,0-1.5,1.4-1.5,2.5v3h-1.1v-6.3h1.1V15.1z"/>
		</g>
	</g>
	<path fill="#FFFFFF" d="M12.4,0L0,9.8h1.1v13.4h22.7V9.8h1.2L12.4,0z M21.8,21.3h-6v-0.4c0,0,3.4-1.2,3-5.3c0,0,2.1-1,0.6-2.9
		c0,0-0.6,1-0.9,1c0,0-0.2-0.8-0.2-1c-0.2,0.4-0.5,0.7-0.6,1.1c-0.4,1.1-0.3,2.3-0.9,3.3c-0.6,1-1.6,1.5-2.8,1.4
		c0,0,0.2-0.7,0.9-1.4h-0.1c0.3-0.5,0.5-1.1,0.5-1.7c0-1.7-1.2-3-2.7-3c-1.5,0-2.7,1.3-2.7,3c0,0.7,0.2,1.3,0.5,1.7h-0.1
		c0.6,0.7,0.9,1.4,0.9,1.4c-1.2,0.1-2.2-0.3-2.8-1.4c-0.6-1-0.5-2.2-1-3.3c-0.2-0.4-0.4-0.8-0.6-1.1c0,0.2-0.2,1-0.2,1
		c-0.3,0-0.9-1-0.9-1c-1.5,1.9,0.6,2.9,0.6,2.9c-0.4,4.1,3,5.3,3,5.3v0.4h-6V9.8l9.3-7.2l9.4,7.2V21.3z"/>
	<g>
		<rect x="32.8" y="1.3" fill="#FFFFFF" width="1.2" height="25.7"/>
	</g>
</g>
</svg>
