<?xml version="1.0" encoding="utf-8"?>
<!-- Generator: Adobe Illustrator 18.1.0, SVG Export Plug-In . SVG Version: 6.00 Build 0)  -->
<!DOCTYPE svg PUBLIC "-//W3C//DTD SVG 1.1//EN" "http://www.w3.org/Graphics/SVG/1.1/DTD/svg11.dtd">
<svg version="1.1" id="Layer_1" xmlns="http://www.w3.org/2000/svg" xmlns:xlink="http://www.w3.org/1999/xlink" x="0px" y="0px"
	 viewBox="0 0 235 40" enable-background="new 0 0 235 40" xml:space="preserve">
<g>
	<path fill="#FF6B00" d="M131.7,0.7v3.5c-2.5-2.2-6-3.5-10.4-3.5h-15.4v12.1C103.2,5.3,96.1,0,87.1,0c-8.3,0-15,4.6-18.1,11.2
		C65.9,4.9,59.3,0.7,50.9,0.7H36.2V30L23.9,0.4h-7.7L0,39.3h8.5l3.5-8.7h16l3.5,8.7h4.8h3.9h10.9c8.4,0,14.9-4.2,18-10.5
		C72.1,35.5,78.7,40,87,40c9,0,16.1-5.4,18.9-12.9v12.3h8.3V27.7h6.3c8.5,0,15.3-4.6,15.3-13.6V14c0-2-0.4-3.9-1-5.5h8.4v30.8h8.3
		V8.5H163V0.7H131.7z M14.9,23.1l5-12.5l5,12.5H14.9z M62.3,20.1c0,6.9-4.6,11.5-11.4,11.5h-6.4V8.3h6.4c6.8,0,11.4,4.8,11.4,11.7
		V20.1z M98.5,20.1c0,6.6-4.6,12-11.3,12c-6.7,0-11.4-5.5-11.4-12.2v-0.1c0-6.6,4.6-12,11.3-12c6.7,0,11.4,5.5,11.4,12.2V20.1z
		 M127.4,14.3c0,3.3-2.4,5.9-6.6,5.9h-6.6V8.3h6.4c4.2,0,6.7,2,6.7,5.9V14.3z"/>
	<g>
		<path fill="#FF6B00" d="M168.3,0.7h26.9v2.7h-24.1v15.2h21.6v2.7h-21.6v15.5h24.3v2.7h-27.2V0.7z"/>
		<path fill="#FF6B00" d="M202.3,0.7h12.6C226.8,0.7,235,9,235,19.9V20c0,10.9-8.2,19.3-20.1,19.3h-12.6V0.7z M214.9,36.7
			c10.5,0,17.2-7.3,17.2-16.6V20c0-9.2-6.6-16.7-17.2-16.7h-9.8v33.4H214.9z"/>
	</g>
</g>
</svg>
